<svg width="728" height="187" viewBox="0 0 728 187" fill="none"
    xmlns="http://www.w3.org/2000/svg">
    <defs>
        <linearGradient id="gradient-1">
            <stop offset="0" stop-color="#086FFF">
                <animate attributeName="stop-color" values="#086FFF;#FFDDB7;#086FFF" dur="3s"
                    repeatCount="indefinite"></animate>
            </stop>
            <stop offset="50%" stop-color="#FFDDB7">
                <animate attributeName="offset" values=".5;.2;.5" dur="3.1500000000000004s"
                    repeatCount="indefinite"></animate>
            </stop>
            <stop offset="100%" stop-color="#FFDDB7">
                <animate attributeName="offset" values="1;.9;1" dur="3.1500000000000004s"
                    repeatCount="indefinite"></animate>
                <animate attributeName="stop-color" values="#FFDDB7;#086FFF;#FFDDB7"
                    dur="3.1500000000000004s" repeatCount="indefinite"></animate>
            </stop>
            <animateTransform attributeName="gradientTransform" type="rotate" from="0 .5 .5"
                to="360 .5 .5" dur="5.4s" repeatCount="indefinite"></animateTransform>
        </linearGradient>
    </defs>
    <rect x="0" y="0" width="728" height="187" fill="url(#gradient-1)" mask="url(#logo-1)">
    </rect>
    <mask id="logo-1">
        <path
            d="M92.75 187C75.9167 187 60.3333 182.917 46 174.75C31.8333 166.583 20.5833 155.333 12.25 141C4.08333 126.667 0 110.833 0 93.5C0 76.1667 4.08333 60.3333 12.25 46C20.5833 31.6667 31.8333 20.4167 46 12.25C60.3333 4.08333 75.9167 0 92.75 0C105.917 0 118.25 2.33333 129.75 7C141.417 11.6667 151 18.25 158.5 26.75L143.25 42C137.583 35 130.25 29.6667 121.25 26C112.417 22.1667 102.917 20.25 92.75 20.25C80.25 20.25 68.5 23.3333 57.5 29.5C46.6667 35.5 37.9167 44.0833 31.25 55.25C24.75 66.25 21.5 79 21.5 93.5C21.5 107.833 24.75 120.583 31.25 131.75C37.9167 142.917 46.6667 151.583 57.5 157.75C68.5 163.75 80.25 166.75 92.75 166.75C104.75 166.75 114.75 164.917 122.75 161.25C130.917 157.417 138 152.417 144 146.25C148.333 141.583 151.833 135.917 154.5 129.25C157.167 122.583 158.75 115.333 159.25 107.5H93.25V87.75H179.25C180.083 92.4167 180.5 96.75 180.5 100.75C180.5 111.75 178.75 122.5 175.25 133C171.75 143.333 166.167 152.417 158.5 160.25C141.667 178.083 119.75 187 92.75 187Z"
            fill="white"></path>
        <path
            d="M92.75 187C75.9167 187 60.3333 182.917 46 174.75C31.8333 166.583 20.5833 155.333 12.25 141C4.08333 126.667 0 110.833 0 93.5C0 76.1667 4.08333 60.3333 12.25 46C20.5833 31.6667 31.8333 20.4167 46 12.25C60.3333 4.08333 75.9167 0 92.75 0C105.917 0 118.25 2.33333 129.75 7C141.417 11.6667 151 18.25 158.5 26.75L143.25 42C137.583 35 130.25 29.6667 121.25 26C112.417 22.1667 102.917 20.25 92.75 20.25C80.25 20.25 68.5 23.3333 57.5 29.5C46.6667 35.5 37.9167 44.0833 31.25 55.25C24.75 66.25 21.5 79 21.5 93.5C21.5 107.833 24.75 120.583 31.25 131.75C37.9167 142.917 46.6667 151.583 57.5 157.75C68.5 163.75 80.25 166.75 92.75 166.75C104.75 166.75 114.75 164.917 122.75 161.25C130.917 157.417 138 152.417 144 146.25C148.333 141.583 151.833 135.917 154.5 129.25C157.167 122.583 158.75 115.333 159.25 107.5H93.25V87.75H179.25C180.083 92.4167 180.5 96.75 180.5 100.75C180.5 111.75 178.75 122.5 175.25 133C171.75 143.333 166.167 152.417 158.5 160.25C141.667 178.083 119.75 187 92.75 187Z"
            fill="url(#paint0_linear_243_442)"></path>
        <path
            d="M254.887 187C242.887 187 232.137 184.167 222.637 178.5C213.303 172.833 205.97 165 200.637 155C195.303 145 192.637 133.667 192.637 121C192.637 109 195.137 98 200.137 88C205.137 77.8333 212.22 69.8333 221.387 64C230.72 58 241.387 55 253.387 55C265.387 55 275.887 57.75 284.887 63.25C294.053 68.5833 301.053 76.1667 305.887 86C310.72 95.8333 313.137 107.167 313.137 120C313.137 122.333 312.97 124 312.637 125H214.137C214.47 134.333 216.72 142.25 220.887 148.75C225.053 155.083 230.22 159.833 236.387 163C242.72 166.167 249.22 167.75 255.887 167.75C271.553 167.75 283.637 160.083 292.137 144.75L310.887 153.75C305.553 163.75 298.137 171.833 288.637 178C279.303 184 268.053 187 254.887 187ZM290.637 107.25C290.303 102.25 288.887 97.25 286.387 92.25C283.887 87.25 279.803 83 274.137 79.5C268.637 76 261.637 74.25 253.137 74.25C243.637 74.25 235.47 77.25 228.637 83.25C221.803 89.25 217.47 97.25 215.637 107.25H290.637Z"
            fill="white"></path>
        <path
            d="M254.887 187C242.887 187 232.137 184.167 222.637 178.5C213.303 172.833 205.97 165 200.637 155C195.303 145 192.637 133.667 192.637 121C192.637 109 195.137 98 200.137 88C205.137 77.8333 212.22 69.8333 221.387 64C230.72 58 241.387 55 253.387 55C265.387 55 275.887 57.75 284.887 63.25C294.053 68.5833 301.053 76.1667 305.887 86C310.72 95.8333 313.137 107.167 313.137 120C313.137 122.333 312.97 124 312.637 125H214.137C214.47 134.333 216.72 142.25 220.887 148.75C225.053 155.083 230.22 159.833 236.387 163C242.72 166.167 249.22 167.75 255.887 167.75C271.553 167.75 283.637 160.083 292.137 144.75L310.887 153.75C305.553 163.75 298.137 171.833 288.637 178C279.303 184 268.053 187 254.887 187ZM290.637 107.25C290.303 102.25 288.887 97.25 286.387 92.25C283.887 87.25 279.803 83 274.137 79.5C268.637 76 261.637 74.25 253.137 74.25C243.637 74.25 235.47 77.25 228.637 83.25C221.803 89.25 217.47 97.25 215.637 107.25H290.637Z"
            fill="url(#paint1_linear_243_442)"></path>
        <path
            d="M327.088 59H347.338V77.5H348.338C351.838 71.1667 357.255 65.8333 364.588 61.5C372.088 57.1667 379.671 55 387.338 55C396.671 55 404.671 57.25 411.338 61.75C418.171 66.0833 423.088 72.0833 426.088 79.75C430.755 72.25 436.755 66.25 444.088 61.75C451.421 57.25 459.838 55 469.338 55C483.838 55 494.755 59.4167 502.088 68.25C509.421 77.0833 513.088 89.25 513.088 104.75V183H491.838V108C491.838 95.8333 489.505 87.1667 484.838 82C480.338 76.8333 473.338 74.25 463.838 74.25C457.505 74.25 451.755 76.1667 446.588 80C441.588 83.6667 437.671 88.5833 434.838 94.75C432.005 100.917 430.588 107.417 430.588 114.25V183H409.588V108C409.588 95.8333 407.255 87.1667 402.588 82C397.921 76.8333 390.921 74.25 381.588 74.25C375.088 74.25 369.338 76.1667 364.338 80C359.338 83.8333 355.421 88.8333 352.588 95C349.755 101.167 348.338 107.75 348.338 114.75V183H327.088V59Z"
            fill="white"></path>
        <path
            d="M327.088 59H347.338V77.5H348.338C351.838 71.1667 357.255 65.8333 364.588 61.5C372.088 57.1667 379.671 55 387.338 55C396.671 55 404.671 57.25 411.338 61.75C418.171 66.0833 423.088 72.0833 426.088 79.75C430.755 72.25 436.755 66.25 444.088 61.75C451.421 57.25 459.838 55 469.338 55C483.838 55 494.755 59.4167 502.088 68.25C509.421 77.0833 513.088 89.25 513.088 104.75V183H491.838V108C491.838 95.8333 489.505 87.1667 484.838 82C480.338 76.8333 473.338 74.25 463.838 74.25C457.505 74.25 451.755 76.1667 446.588 80C441.588 83.6667 437.671 88.5833 434.838 94.75C432.005 100.917 430.588 107.417 430.588 114.25V183H409.588V108C409.588 95.8333 407.255 87.1667 402.588 82C397.921 76.8333 390.921 74.25 381.588 74.25C375.088 74.25 369.338 76.1667 364.338 80C359.338 83.8333 355.421 88.8333 352.588 95C349.755 101.167 348.338 107.75 348.338 114.75V183H327.088V59Z"
            fill="url(#paint2_linear_243_442)"></path>
        <path
            d="M543.152 33C538.986 33 535.402 31.5 532.402 28.5C529.402 25.5 527.902 21.9167 527.902 17.75C527.902 13.5833 529.402 10 532.402 7C535.402 4 538.986 2.5 543.152 2.5C547.319 2.5 550.902 4 553.902 7C556.902 10 558.402 13.5833 558.402 17.75C558.402 21.9167 556.902 25.5 553.902 28.5C551.069 31.5 547.486 33 543.152 33ZM532.652 59H553.902V183H532.652V59Z"
            fill="white"></path>
        <path
            d="M543.152 33C538.986 33 535.402 31.5 532.402 28.5C529.402 25.5 527.902 21.9167 527.902 17.75C527.902 13.5833 529.402 10 532.402 7C535.402 4 538.986 2.5 543.152 2.5C547.319 2.5 550.902 4 553.902 7C556.902 10 558.402 13.5833 558.402 17.75C558.402 21.9167 556.902 25.5 553.902 28.5C551.069 31.5 547.486 33 543.152 33ZM532.652 59H553.902V183H532.652V59Z"
            fill="url(#paint3_linear_243_442)"></path>
        <path
            d="M574.061 59H594.311V77.5H595.311C598.811 71.1667 604.311 65.8333 611.811 61.5C619.311 57.1667 627.311 55 635.811 55C650.977 55 662.477 59.4167 670.311 68.25C678.311 77.0833 682.311 89.1667 682.311 104.5V183H661.311V107.75C661.311 95.75 658.561 87.1667 653.061 82C647.727 76.8333 640.061 74.25 630.061 74.25C623.394 74.25 617.394 76.1667 612.061 80C606.727 83.8333 602.561 88.8333 599.561 95C596.727 101.167 595.311 107.667 595.311 114.5V183H574.061V59Z"
            fill="white"></path>
        <path
            d="M574.061 59H594.311V77.5H595.311C598.811 71.1667 604.311 65.8333 611.811 61.5C619.311 57.1667 627.311 55 635.811 55C650.977 55 662.477 59.4167 670.311 68.25C678.311 77.0833 682.311 89.1667 682.311 104.5V183H661.311V107.75C661.311 95.75 658.561 87.1667 653.061 82C647.727 76.8333 640.061 74.25 630.061 74.25C623.394 74.25 617.394 76.1667 612.061 80C606.727 83.8333 602.561 88.8333 599.561 95C596.727 101.167 595.311 107.667 595.311 114.5V183H574.061V59Z"
            fill="url(#paint4_linear_243_442)"></path>
        <path
            d="M712.488 33C708.322 33 704.738 31.5 701.738 28.5C698.738 25.5 697.238 21.9167 697.238 17.75C697.238 13.5833 698.738 10 701.738 7C704.738 4 708.322 2.5 712.488 2.5C716.655 2.5 720.238 4 723.238 7C726.238 10 727.738 13.5833 727.738 17.75C727.738 21.9167 726.238 25.5 723.238 28.5C720.405 31.5 716.822 33 712.488 33ZM701.988 59H723.238V183H701.988V59Z"
            fill="white"></path>
        <path
            d="M712.488 33C708.322 33 704.738 31.5 701.738 28.5C698.738 25.5 697.238 21.9167 697.238 17.75C697.238 13.5833 698.738 10 701.738 7C704.738 4 708.322 2.5 712.488 2.5C716.655 2.5 720.238 4 723.238 7C726.238 10 727.738 13.5833 727.738 17.75C727.738 21.9167 726.238 25.5 723.238 28.5C720.405 31.5 716.822 33 712.488 33ZM701.988 59H723.238V183H701.988V59Z"
            fill="url(#paint5_linear_243_442)"></path>
    </mask>
</svg>